<?xml version="1.0" standalone="no"?>
<!DOCTYPE svg PUBLIC "-//W3C//DTD SVG 20010904//EN"
 "http://www.w3.org/TR/2001/REC-SVG-20010904/DTD/svg10.dtd">
<svg version="1.0" xmlns="http://www.w3.org/2000/svg"
 width="256.000000pt" height="256.000000pt" viewBox="0 0 256.000000 256.000000"
 preserveAspectRatio="xMidYMid meet">

	<g transform="translate(0.000000,256.000000) scale(0.100000,-0.100000)"
	fill="#000000" stroke="none">
		<path d="M456 1408 c-192 -469 -373 -910 -402 -980 l-53 -128 119 0 118 0 323 968 c177 532 324 973 327 980 3 8 -9 12 -40 12 l-43 0 -349 -852z"/> 
		<path d="M721 1298 c-140 -530 -256 -971 -259 -981 -4 -16 15 -17 344 -15 l349 3 3 78 3 77 119 0 119 0 3 -77 3 -78 349 -3 c329 -2 348 -1 344 15 -3 10 -119 451 -259 981 l-253 962 -128 0 -128 0 0 -80 0 -80 -50 0 -50 0 0 80 0 80 -128 0 -127 0 -254 -962z m623 500 c3 -35 8 -138 12 -230 l6 -168 -82 0 -82 0 6 168 c4 92 9 195 12 230 l6 62 58 0 58 0 6 -62z m30 -740 c3 -57 8 -160 12 -230 l6 -128 -112 0 -112 0 6 128 c4 70 9 173 12 230 l6 102 88 0 88 0 6 -102z"/>
		<path d="M1672 2248 c3 -7 150 -448 327 -980 l323 -968 118 0 119 0 -53 128 c-29 70 -210 511 -402 980 l-349 852 -43 0 c-31 0 -43 -4 -40 -12z"/>
	</g>
</svg>
